<?xml version="1.0" encoding="UTF-8" standalone="no"?>
<svg
   xmlns:dc="http://purl.org/dc/elements/1.1/"
   xmlns:cc="http://creativecommons.org/ns#"
   xmlns:rdf="http://www.w3.org/1999/02/22-rdf-syntax-ns#"
   xmlns:svg="http://www.w3.org/2000/svg"
   xmlns="http://www.w3.org/2000/svg"
   viewBox="0 0 1122.52 793.70135"
   height="793.70135"
   width="1122.52"
   xml:space="preserve"
   id="svg2"
   version="1.1"><metadata
     id="metadata8"><rdf:RDF><cc:Work
         rdf:about=""><dc:format>image/svg+xml</dc:format><dc:type
           rdf:resource="http://purl.org/dc/dcmitype/StillImage" /></cc:Work></rdf:RDF></metadata><defs
     id="defs6"><clipPath
       id="clipPath18"
       clipPathUnits="userSpaceOnUse"><path
         id="path16"
         d="M 0,595.275 V 432.096 270.705 0 h 841.89 v 595.275 z" /></clipPath></defs><g
     transform="matrix(1.3333333,0,0,-1.3333333,0,793.70133)"
     id="g10"><g
       id="g12"><g
         clip-path="url(#clipPath18)"
         id="g14"><g
           id="g20"><g
             transform="scale(1,-1)"
             id="g22"><g
               id="g24"><path
                 id="path26"
                 style="fill:#65c7f2;fill-opacity:1;fill-rule:nonzero;stroke:none"
                 d="m 5.7597254e-5,0.93418679 c 222.399492402746,0 128.333052402746,0 207.322342402746,0 0,-69.33009179 -16.47071,-89.21974379 -16.47071,-158.55081679 -78.99027,0 -111.861371,-113.08791 -190.851632402746,-113.08791 0,69.33107 0,202.308635 0,271.63872679 z" /><path
                 id="path28"
                 style="fill:#65c7f2;fill-opacity:1;fill-rule:nonzero;stroke:none"
                 d="m 207.3224,0.93418679 c 0,-34.66504479 -4.11719,-56.96973779 -8.23536,-79.27540579 7.75489,0 15.66407,0.0068 23.70802,0.01953 4.06347,22.295903 8.12598,44.590831 8.12598,79.25587579 -7.97266,0 -15.84278,0 -23.59864,0 z" /><path
                 id="path30"
                 style="fill:#67c8f1;fill-opacity:1;fill-rule:nonzero;stroke:none"
                 d="m 230.92104,0.93418679 c 0,-34.66504479 -4.06251,-56.95997279 -8.12598,-79.25587579 8.04394,0.0127 16.22266,0.03125 24.51758,0.05371 3.90723,22.268559 7.81446,44.53712 7.81446,79.20216479 -8.16016,0 -16.23438,0 -24.20606,0 z" /><path
                 id="path32"
                 style="fill:#6bc8ed;fill-opacity:1;fill-rule:nonzero;stroke:none"
                 d="m 255.1271,0.93418679 c 0,-34.66504479 -3.90723,-56.93360579 -7.81446,-79.20216479 16.5879,0.04688 33.63869,0.113281 50.99807,0.193359 3.35254,22.17188 6.70508,44.343761 6.70508,79.00880579 -16.89942,0 -33.56837,0 -49.88869,0 z" /><path
                 id="path34"
                 style="fill:#77c9de;fill-opacity:1;fill-rule:nonzero;stroke:none"
                 d="m 305.01579,0.93418679 c 0,-17.33203479 -0.83789,-31.54199879 -2.0957,-44.18946279 17.04395,0.02539 34.34278,0.05469 51.76954,0.08594 0.9629,12.595705 1.6045,26.771489 1.6045,44.10352379 -17.24708,0 -34.37794,0 -51.27834,-10e-7 z" /><path
                 id="path36"
                 style="fill:#86cbc7;fill-opacity:1;fill-rule:nonzero;stroke:none"
                 d="m 356.29413,0.93418679 c 0,-17.33203479 -0.6416,-31.50781879 -1.6045,-44.10352379 17.42579,0.03125 34.98049,0.06445 52.53518,0.09766 0.62598,12.537112 1.04297,26.673833 1.04297,44.00586779 -17.36329,0 -34.7256,0 -51.97365,0 z" /><path
                 id="path38"
                 style="fill:#7fccdd;fill-opacity:1;fill-rule:nonzero;stroke:none"
                 d="m 302.92009,-43.255276 c -1.25684,-12.647463 -2.9336,-23.733402 -4.60938,-34.819343 17.3584,0.08008 35.0254,0.172852 52.8467,0.273439 1.28418,11.01758 2.56836,22.035161 3.53222,34.631843 -17.42676,-0.03125 -34.72559,-0.06055 -51.76954,-0.08594 z" /><path
                 id="path40"
                 style="fill:#95d0c5;fill-opacity:1;fill-rule:nonzero;stroke:none"
                 d="m 354.68963,-43.169337 c -0.96386,-12.596682 -2.24804,-23.614263 -3.53222,-34.631843 17.82129,0.09961 35.79688,0.206054 53.7715,0.3125 0.83496,10.939454 1.66992,21.87891 2.2959,34.416999 -17.55469,-0.0332 -35.10939,-0.06641 -52.53518,-0.09766 z" /><path
                 id="path42"
                 style="fill:#65c7f2;fill-opacity:1;fill-rule:nonzero;stroke:none"
                 d="m 199.08704,-78.341219 c -4.11719,-22.304691 -8.23535,-44.609381 -8.23535,-79.275411 7.75488,0 15.70215,0.0137 23.81836,0.0391 0,34.66504 4.0625,56.95997 8.12501,79.255871 -8.04395,-0.01269 -15.95313,-0.01953 -23.70802,-0.01953 z" /><path
                 id="path44"
                 style="fill:#68c8f1;fill-opacity:1;fill-rule:nonzero;stroke:none"
                 d="m 222.79506,-78.321689 c -4.06251,-22.295901 -8.12501,-44.590831 -8.12501,-79.255871 8.11524,0.0244 16.39942,0.0615 24.82814,0.10742 0,34.66602 3.90723,56.93458 7.81445,79.202162 -8.29492,-0.02246 -16.47364,-0.04102 -24.51758,-0.05371 z" /><path
                 id="path46"
                 style="fill:#70c9ed;fill-opacity:1;fill-rule:nonzero;stroke:none"
                 d="m 247.31264,-78.267978 c -3.90722,-22.267582 -7.81445,-44.536142 -7.81445,-79.202162 16.85547,0.0937 34.28907,0.22656 52.10744,0.38672 0,34.66504 3.35254,56.83692 6.70508,79.008801 -17.35938,-0.08008 -34.41017,-0.146483 -50.99807,-0.193359 z" /><path
                 id="path48"
                 style="fill:#86cddc;fill-opacity:1;fill-rule:nonzero;stroke:none"
                 d="m 298.31071,-78.074619 c -1.67676,-11.085939 -3.35254,-22.171881 -4.61036,-34.819341 17.67482,0.13476 35.70998,0.29199 53.92581,0.46094 0.96289,12.596679 2.24707,23.614259 3.53125,34.63184 -17.8213,-0.100587 -35.4883,-0.19336 -52.8467,-0.273439 z" /><path
                 id="path50"
                 style="fill:#a0d2c3;fill-opacity:1;fill-rule:nonzero;stroke:none"
                 d="m 351.15741,-77.80118 c -1.28418,-11.017581 -2.56836,-22.035161 -3.53125,-34.63184 18.21582,0.16797 36.61134,0.34863 55.00685,0.52832 0.62598,12.537108 1.46094,23.476564 2.2959,34.41602 -17.97462,-0.106446 -35.95021,-0.212891 -53.7715,-0.3125 z" /><path
                 id="path52"
                 style="fill:#8acedc;fill-opacity:1;fill-rule:nonzero;stroke:none"
                 d="m 293.70035,-112.89396 c -1.25683,-12.64747 -2.09472,-26.85645 -2.09472,-44.18946 17.81739,0.16015 36.02052,0.34668 54.41506,0.5459 0,17.33301 0.64257,31.50781 1.60547,44.1045 -18.21583,-0.16895 -36.25099,-0.32618 -53.92581,-0.46094 z" /><path
                 id="path54"
                 style="fill:#a6d3c2;fill-opacity:1;fill-rule:nonzero;stroke:none"
                 d="m 347.62616,-112.43302 c -0.9629,-12.59669 -1.60547,-26.77149 -1.60547,-44.1045 18.39453,0.20019 36.98243,0.41308 55.56935,0.62597 0,17.33301 0.41699,31.46876 1.04297,44.00685 -18.39551,-0.17969 -36.79103,-0.36035 -55.00685,-0.52832 z" /><path
                 id="path56"
                 style="fill:#96ccaa;fill-opacity:1;fill-rule:nonzero;stroke:none"
                 d="m 408.26778,0.93418679 c 0,-17.33203479 -0.41699,-31.46875579 -1.04297,-44.00586779 17.55372,0.0332 35.10841,0.06641 52.53517,0.09766 0.28907,12.479495 0.48145,26.576177 0.48145,43.90821179 -17.24708,0 -34.61037,0 -51.97365,0 z" /><path
                 id="path58"
                 style="fill:#a5ce8b;fill-opacity:1;fill-rule:nonzero;stroke:none"
                 d="m 460.24143,0.93418679 c 0,-17.33203479 -0.19238,-31.42871679 -0.48145,-43.90821179 17.42677,0.03125 34.7256,0.06055 51.76858,0.08496 -0.005,12.427737 -0.009,26.491217 -0.009,43.82325179 -16.89942,0 -34.03126,0 -51.27834,0 z" /><path
                 id="path60"
                 style="fill:#abd3a7;fill-opacity:1;fill-rule:nonzero;stroke:none"
                 d="m 407.22481,-43.071681 c -0.62598,-12.538089 -1.46094,-23.477545 -2.2959,-34.416999 17.97559,0.106446 35.95021,0.21289 53.7715,0.313476 0.38477,10.861331 0.77051,21.721685 1.05957,34.201179 -17.42676,-0.03125 -34.98145,-0.06445 -52.53517,-0.09766 z" /><path
                 id="path62"
                 style="fill:#bfd784;fill-opacity:1;fill-rule:nonzero;stroke:none"
                 d="m 459.75998,-42.974025 c -0.28906,-12.479494 -0.6748,-23.339848 -1.05957,-34.201179 17.8213,0.09961 35.4883,0.193359 52.8467,0.272461 -0.007,10.792971 -0.0137,21.585942 -0.0185,34.013678 -17.04298,-0.02441 -34.34181,-0.05371 -51.76858,-0.08496 z" /><path
                 id="path64"
                 style="fill:#afcf6c;fill-opacity:1;fill-rule:nonzero;stroke:none"
                 d="m 511.51977,0.93418679 c 0,-17.33203479 0.004,-31.39551479 0.009,-43.82325179 17.04297,0.02539 33.83106,0.0459 50.23537,0.06055 -0.2129,12.391604 -0.35547,26.430669 -0.35547,43.76270379 -16.32032,0 -32.9883,0 -49.88869,0 z" /><path
                 id="path66"
                 style="fill:#b7d053;fill-opacity:1;fill-rule:nonzero;stroke:none"
                 d="m 561.40846,0.93418679 c 0,-17.33203479 0.14257,-31.37109979 0.35547,-43.76270379 8.20215,0.0078 16.30859,0.0127 24.30371,0.0166 -0.27148,12.38184 -0.45214,26.414068 -0.45214,43.74610279 -7.97266,0 -16.04591,0 -24.20704,0 z" /><path
                 id="path68"
                 style="fill:#b9d04c;fill-opacity:1;fill-rule:nonzero;stroke:none"
                 d="m 585.6155,0.93418679 c 0,-17.33203479 0.18066,-31.36426279 0.45214,-43.74610279 7.99415,0.0039 15.87696,0.0068 23.63185,0.0068 -0.29199,12.377932 -0.48633,26.407231 -0.48633,43.73926579 -7.75489,0 -15.62598,0 -23.59766,0 z" /><path
                 id="path70"
                 style="fill:#d0da60;fill-opacity:1;fill-rule:nonzero;stroke:none"
                 d="m 511.52856,-42.889065 c 0.005,-12.427736 0.0117,-23.220707 0.0185,-34.013678 17.35938,0.08008 34.41017,0.146485 50.99807,0.193359 -0.28418,10.74512 -0.56836,21.489263 -0.78125,33.880867 -16.40431,-0.01465 -33.1924,-0.03516 -50.23537,-0.06055 z" /><path
                 id="path72"
                 style="fill:#dadc41;fill-opacity:1;fill-rule:nonzero;stroke:none"
                 d="m 561.76393,-42.828517 c 0.21289,-12.391604 0.49707,-23.135747 0.78125,-33.880867 8.29492,0.02344 16.47363,0.04199 24.51758,0.05469 -0.3623,10.730472 -0.72363,21.461919 -0.99512,33.84278 -7.99512,-0.0039 -16.10156,-0.0088 -24.30371,-0.0166 z" /><path
                 id="path74"
                 style="fill:#dcdd37;fill-opacity:1;fill-rule:nonzero;stroke:none"
                 d="m 586.06764,-42.811916 c 0.27149,-12.380861 0.63282,-23.112308 0.99512,-33.84278 8.04395,0.01172 15.95313,0.01856 23.70802,0.01856 -0.38965,10.726565 -0.7793,21.45313 -1.07129,33.831062 -7.75489,0 -15.6377,-0.0029 -23.63185,-0.0068 z" /><path
                 id="path76"
                 style="fill:#bbd7a3;fill-opacity:1;fill-rule:nonzero;stroke:none"
                 d="m 404.92891,-77.48868 c -0.83496,-10.939456 -1.66992,-21.878912 -2.2959,-34.41602 18.39649,0.17968 36.79201,0.35937 55.00783,0.52832 0.28906,12.478515 0.67383,23.339846 1.05957,34.201176 -17.82129,-0.100586 -35.79591,-0.20703 -53.7715,-0.313476 z" /><path
                 id="path78"
                 style="fill:#d2dc7e;fill-opacity:1;fill-rule:nonzero;stroke:none"
                 d="m 458.70041,-77.175204 c -0.38574,-10.86133 -0.77051,-21.722661 -1.05957,-34.201176 18.21583,0.16797 36.25099,0.32519 53.92483,0.45996 -0.005,12.427735 -0.0117,23.220706 -0.0186,34.013677 -17.3584,-0.0791 -35.0254,-0.172852 -52.8467,-0.272461 z" /><path
                 id="path80"
                 style="fill:#c2d8a1;fill-opacity:1;fill-rule:nonzero;stroke:none"
                 d="m 402.63301,-111.9047 c -0.62598,-12.53809 -1.04297,-26.67384 -1.04297,-44.00685 18.58692,0.21289 37.17482,0.42676 55.56936,0.62598 0,17.33301 0.19238,31.42969 0.48144,43.90919 -18.21582,-0.16895 -36.61134,-0.34864 -55.00783,-0.52832 z" /><path
                 id="path82"
                 style="fill:#dcdd79;fill-opacity:1;fill-rule:nonzero;stroke:none"
                 d="m 457.64084,-111.37638 c -0.28906,-12.4795 -0.48144,-26.57618 -0.48144,-43.90919 18.39453,0.20019 36.59767,0.38672 54.41506,0.5459 0,17.33301 -0.003,31.39551 -0.009,43.82325 -17.67384,-0.13477 -35.709,-0.29199 -53.92483,-0.45996 z" /><path
                 id="path84"
                 style="fill:#e4e056;fill-opacity:1;fill-rule:nonzero;stroke:none"
                 d="m 511.54711,-76.902743 c 0.007,-10.792971 0.0137,-21.585942 0.0186,-34.013677 17.67481,0.13476 34.98829,0.24805 51.76173,0.32617 -0.21386,12.391605 -0.49804,23.136724 -0.78222,33.880866 -16.5879,-0.04687 -33.63869,-0.113281 -50.99807,-0.193359 z" /><path
                 id="path86"
                 style="fill:#f0e231;fill-opacity:1;fill-rule:nonzero;stroke:none"
                 d="m 562.54518,-76.709384 c 0.28418,-10.744142 0.56836,-21.489261 0.78222,-33.880866 8.38575,0.0391 16.63673,0.0703 24.73048,0.0918 -0.27149,12.38086 -0.63379,23.112307 -0.99512,33.843754 -8.04395,-0.0127 -16.22266,-0.03125 -24.51758,-0.05469 z" /><path
                 id="path88"
                 style="fill:#f3e323;fill-opacity:1;fill-rule:nonzero;stroke:none"
                 d="m 587.06276,-76.654696 c 0.36133,-10.731447 0.72363,-21.462894 0.99512,-33.843754 8.09278,0.0205 16.02833,0.0322 23.78321,0.0322 -0.29199,12.377936 -0.68066,23.103524 -1.07031,33.830089 -7.75489,0 -15.66407,-0.0068 -23.70802,-0.01856 z" /><path
                 id="path90"
                 style="fill:#efe04f;fill-opacity:1;fill-rule:nonzero;stroke:none"
                 d="m 511.56567,-110.91642 c 0.006,-12.42774 0.009,-26.49024 0.009,-43.82325 17.81836,0.16015 35.25098,0.29297 52.10744,0.38672 0,17.33301 -0.14161,31.3711 -0.3545,43.7627 -16.77344,-0.0781 -34.08692,-0.19141 -51.76173,-0.32617 z" /><path
                 id="path92"
                 style="fill:#fbe326;fill-opacity:1;fill-rule:nonzero;stroke:none"
                 d="m 563.3274,-110.59025 c 0.21289,-12.3916 0.3545,-26.42969 0.3545,-43.7627 8.42871,0.0469 16.71289,0.083 24.82813,0.1084 0,17.33203 -0.18067,31.36426 -0.45215,43.7461 -8.09375,-0.0215 -16.34473,-0.0527 -24.73048,-0.0918 z" /><path
                 id="path94"
                 style="fill:#ffe40f;fill-opacity:1;fill-rule:nonzero;stroke:none"
                 d="m 588.05788,-110.49845 c 0.27148,-12.38184 0.45215,-26.41407 0.45215,-43.7461 8.11524,0.0244 16.0625,0.0381 23.81837,0.0381 0,17.33301 -0.19532,31.36231 -0.48731,43.74024 -7.75488,0 -15.69043,-0.0117 -23.78321,-0.0322 z" /><path
                 id="path96"
                 style="fill:#b9d04a;fill-opacity:1;fill-rule:nonzero;stroke:none"
                 d="m 609.21316,0.93418679 c 19.38966,0 38.77931,0 58.16897,0 0,-17.33203479 0.16406,-31.87793479 0.41113,-45.03028279 -19.34473,0.774415 -38.70412,1.291017 -58.09377,1.291017 -0.29199,12.377932 -0.48633,26.407231 -0.48633,43.73926579 z" /><path
                 id="path98"
                 style="fill:#dddd34;fill-opacity:1;fill-rule:nonzero;stroke:none"
                 d="m 609.69949,-42.805079 c 19.38965,0 38.74904,-0.516602 58.09377,-1.291017 0.24609,-13.151369 0.57422,-24.910161 0.90332,-36.668952 -19.24415,2.47754 -38.53615,4.128907 -57.9258,4.128907 -0.38965,10.726565 -0.7793,21.45313 -1.07129,33.831062 z" /><path
                 id="path100"
                 style="fill:#b9d04a;fill-opacity:1;fill-rule:nonzero;stroke:none"
                 d="m 667.38213,0.93418679 c 19.38965,0 38.77931,0 58.16896,0 0,-17.33203479 0.0977,-33.01367779 0.24414,-47.86817479 -19.32911,1.032228 -38.65821,2.064455 -58.00197,2.837892 -0.24707,13.152348 -0.41113,27.698248 -0.41113,45.03028279 z" /><path
                 id="path102"
                 style="fill:#d9db37;fill-opacity:1;fill-rule:nonzero;stroke:none"
                 d="m 667.79326,-44.096096 c 19.34376,-0.773437 38.67286,-1.805664 58.00197,-2.837892 0.14551,-14.855471 0.34082,-28.88477 0.53516,-42.91407 -19.19532,3.302735 -38.39064,6.60547 -57.63381,9.08301 -0.3291,11.758791 -0.65723,23.517583 -0.90332,36.668952 z" /><path
                 id="path104"
                 style="fill:#f4e31d;fill-opacity:1;fill-rule:nonzero;stroke:none"
                 d="m 610.77078,-76.636141 c 19.38965,0 38.68165,-1.651367 57.9258,-4.128907 0.32813,-11.758792 0.65723,-23.516602 0.90332,-36.668952 -19.14356,4.18066 -38.36915,6.96777 -57.75881,6.96777 -0.29199,12.377936 -0.68066,23.103524 -1.07031,33.830089 z" /><path
                 id="path106"
                 style="fill:#ffe401;fill-opacity:1;fill-rule:nonzero;stroke:none"
                 d="m 611.84109,-110.46623 c 19.38966,0 38.61525,-2.78711 57.75881,-6.96777 0.24609,-13.15235 0.41113,-27.69727 0.41113,-45.03028 -19.09864,4.95508 -38.29298,8.25781 -57.68263,8.25781 0,17.33301 -0.19532,31.36231 -0.48731,43.74024 z" /><path
                 id="path108"
                 style="fill:#efe224;fill-opacity:1;fill-rule:nonzero;stroke:none"
                 d="m 668.69658,-80.765048 c 19.24317,-2.47754 38.43849,-5.780275 57.63381,-9.08301 0.19434,-14.030272 0.38965,-28.059572 0.53516,-42.915042 -19.06153,5.57421 -38.12209,11.14843 -57.26565,15.3291 -0.24609,13.15235 -0.57519,24.91016 -0.90332,36.668952 z" /><path
                 id="path110"
                 style="fill:#fbe210;fill-opacity:1;fill-rule:nonzero;stroke:none"
                 d="m 669.5999,-117.434 c 19.14356,-4.18067 38.20412,-9.75489 57.26565,-15.3291 0.14648,-14.8545 0.24316,-30.53614 0.24316,-47.86818 -19.00001,6.60645 -38.00001,13.21192 -57.09768,18.167 0,17.33301 -0.16504,31.87793 -0.41113,45.03028 z" /><path
                 id="path112"
                 style="fill:#b9d04a;fill-opacity:1;fill-rule:nonzero;stroke:none"
                 d="m 725.55109,0.93418679 c 19.39063,0 38.78029,0 58.16994,0 0,-17.33203479 0.0303,-34.14844379 0.0762,-50.70704079 -19.34474,0.774414 -38.67384,1.80664 -58.00198,2.838866 -0.14648,14.854497 -0.24414,30.53614 -0.24414,47.86817479 z" /><path
                 id="path114"
                 style="fill:#d0d73d;fill-opacity:1;fill-rule:nonzero;stroke:none"
                 d="m 725.79523,-46.933988 c 19.32814,-1.032226 38.65724,-2.064452 58.00198,-2.838866 0.0449,-16.558597 0.10644,-32.859383 0.16699,-49.159189 -19.24415,2.477539 -38.43849,5.780274 -57.63381,9.083985 -0.19434,14.0293 -0.38965,28.058599 -0.53516,42.91407 z" /><path
                 id="path116"
                 style="fill:#b9d04a;fill-opacity:1;fill-rule:nonzero;stroke:none"
                 d="m 783.72103,0.93418679 c 19.38966,0 38.77932,0 58.16897,0 0,-17.33203479 0,-34.66504479 0,-51.99708079 -19.38965,0 -38.74904,0.515625 -58.09279,1.29004 -0.0459,16.558597 -0.0762,33.375006 -0.0762,50.70704079 z" /><path
                 id="path118"
                 style="fill:#c4d445;fill-opacity:1;fill-rule:nonzero;stroke:none"
                 d="m 783.79721,-49.772854 c 19.34375,-0.774415 38.70314,-1.29004 58.09279,-1.29004 0,-17.333011 0,-34.666022 0,-51.998056 -19.38965,0 -38.68165,1.65137 -57.9258,4.128907 -0.0606,16.299806 -0.12207,32.600592 -0.16699,49.159189 z" /><path
                 id="path120"
                 style="fill:#e2dc30;fill-opacity:1;fill-rule:nonzero;stroke:none"
                 d="m 726.33039,-89.848058 c 19.19532,-3.303711 38.38966,-6.606446 57.63381,-9.083985 0.0605,-16.300787 0.12207,-32.600597 0.16699,-49.159187 -19.14356,4.18066 -38.20411,9.75488 -57.26564,15.32813 -0.14551,14.85547 -0.34082,28.88477 -0.53516,42.915042 z" /><path
                 id="path122"
                 style="fill:#eede25;fill-opacity:1;fill-rule:nonzero;stroke:none"
                 d="m 726.86555,-132.7631 c 19.06153,-5.57325 38.12208,-11.14747 57.26564,-15.32813 0.0459,-16.5586 0.0762,-33.37501 0.0762,-50.70802 -19.09766,4.95508 -38.09767,11.56152 -57.09865,18.16797 0,17.33204 -0.0967,33.01368 -0.24316,47.86818 z" /><path
                 id="path124"
                 style="fill:#cfd63d;fill-opacity:1;fill-rule:nonzero;stroke:none"
                 d="m 783.9642,-98.932043 c 19.24415,-2.477537 38.53615,-4.128907 57.9258,-4.128907 0,-17.33301 0,-34.66505 0,-51.99806 -19.38965,0 -38.61525,2.78711 -57.75881,6.96778 -0.0449,16.55859 -0.10645,32.8584 -0.16699,49.159187 z" /><path
                 id="path126"
                 style="fill:#d8d837;fill-opacity:1;fill-rule:nonzero;stroke:none"
                 d="m 784.13119,-148.09123 c 19.14356,-4.18067 38.36916,-6.96778 57.75881,-6.96778 0,-17.33203 0,-34.66504 0,-51.99806 -19.38965,0 -38.58497,3.30372 -57.68264,8.25782 0,17.33301 -0.0303,34.14942 -0.0762,50.70802 z" /><path
                 id="path128"
                 style="fill:#65c7f2;fill-opacity:1;fill-rule:nonzero;stroke:none"
                 d="M 5.7597254e-5,-270.70454 C 78.990319,-270.70454 111.86142,-157.61663 190.85169,-157.61663 c 0,-7.95508 1.62304,-17.2168 4.46386,-27.45703 -78.99026,0 -111.634799,-109.98635 -195.315492402746,-108.22854 0,7.14746 0,14.6416 0,22.59766 z" /><path
                 id="path130"
                 style="fill:#72c6f1;fill-opacity:1;fill-rule:nonzero;stroke:none"
                 d="M 5.7597254e-5,-293.3022 C 83.680751,-295.06001 116.32529,-185.07366 195.31555,-185.07366 c 2.84083,-10.24024 6.89942,-21.45899 11.76856,-33.33106 -78.99026,0 -111.037144,-101.81106 -207.084052402746,-95.41799 0,6.5708 0,13.37256 0,20.52051 z" /><path
                 id="path132"
                 style="fill:#8bc2ea;fill-opacity:1;fill-rule:nonzero;stroke:none"
                 d="M 5.7597254e-5,-313.82271 C 96.046966,-320.21578 128.09385,-218.40472 207.08411,-218.40472 c 4.87012,-11.87208 10.55176,-24.39649 16.63868,-37.24708 -78.99026,0 -110.1934,-90.25197 -223.722732402746,-77.30617 0,6.22461 0,12.56446 0,19.13526 z" /><path
                 id="path134"
                 style="fill:#a6b9e0;fill-opacity:1;fill-rule:nonzero;stroke:none"
                 d="M 5.7597254e-5,-332.95797 C 113.52939,-345.90377 144.73253,-255.6518 223.72279,-255.6518 c 6.08692,-12.85059 12.58008,-26.02735 19.07325,-39.20411 -78.99026,0 -109.22562,-77.00246 -242.795982402746,-56.54445 0,6.10889 0,12.21827 0,18.44239 z" /><path
                 id="path136"
                 style="fill:#bfaad2;fill-opacity:1;fill-rule:nonzero;stroke:none"
                 d="M 5.7597254e-5,-351.40036 C 133.57042,-371.85837 163.80578,-294.85591 242.79604,-294.85591 c 6.49317,-13.17725 12.98536,-26.3545 19.07325,-39.20509 -78.99026,0 -108.25688,-63.75196 -261.869232402746,-35.78174 0,6.22461 0,12.33349 0,18.44238 z" /><path
                 id="path138"
                 style="fill:#d296c2;fill-opacity:1;fill-rule:nonzero;stroke:none"
                 d="M 5.7597254e-5,-369.84274 C 153.61241,-397.81296 182.87903,-334.061 261.86929,-334.061 c 6.08692,-12.85059 11.76856,-25.375 16.6377,-37.24708 -78.99026,0 -107.41215,-52.19288 -278.506932402746,-17.66992 0,6.5708 0,12.91065 0,19.13526 z" /><path
                 id="path140"
                 style="fill:#e080b2;fill-opacity:1;fill-rule:nonzero;stroke:none"
                 d="M 5.7597254e-5,-388.978 C 171.09484,-423.50096 199.51673,-371.30808 278.50699,-371.30808 c 4.87012,-11.87158 8.92774,-23.09082 11.76856,-33.33106 -78.99026,0 -106.81449,-44.0171 -290.275492402746,-4.85888 0,7.14746 0,13.94922 0,20.52002 z" /><path
                 id="path142"
                 style="fill:#e96ea5;fill-opacity:1;fill-rule:nonzero;stroke:none"
                 d="M 5.7597254e-5,-409.49802 C 183.46106,-448.65624 211.28529,-404.63914 290.27555,-404.63914 c 2.84082,-10.24023 4.46387,-19.50147 4.46387,-27.45703 -78.99026,0 -106.58793,-40.91652 -294.739362402746,0 0,7.95556 0,15.4502 0,22.59815 z" /><path
                 id="path144"
                 style="fill:#65c7f2;fill-opacity:1;fill-rule:nonzero;stroke:none"
                 d="m 190.85169,-157.61663 c 0,-7.95508 1.62304,-17.2168 4.46386,-27.45703 7.75489,0 15.68458,0.0332 23.76661,0.0947 -2.80761,10.20508 -4.41211,19.44532 -4.41211,27.40138 -8.11621,-0.0254 -16.06348,-0.0391 -23.81836,-0.0391 z" /><path
                 id="path146"
                 style="fill:#68c8f1;fill-opacity:1;fill-rule:nonzero;stroke:none"
                 d="m 214.67005,-157.57756 c 0,-7.95606 1.6045,-17.1963 4.41211,-27.40138 8.08106,0.0615 16.31544,0.15137 24.6797,0.2666 -2.71387,10.1045 -4.26367,19.28712 -4.26367,27.2422 -8.42872,-0.0459 -16.7129,-0.083 -24.82814,-0.10742 z" /><path
                 id="path148"
                 style="fill:#72c6f1;fill-opacity:1;fill-rule:nonzero;stroke:none"
                 d="m 195.31555,-185.07366 c 2.84083,-10.24024 6.89942,-21.45899 11.76856,-33.33106 7.75489,0 15.63673,0.083 23.62892,0.23828 -4.81348,11.81347 -8.82422,22.98242 -11.63087,33.1875 -8.08203,-0.0615 -16.01172,-0.0947 -23.76661,-0.0947 z" /><path
                 id="path150"
                 style="fill:#73c7ef;fill-opacity:1;fill-rule:nonzero;stroke:none"
                 d="m 219.08216,-184.97894 c 2.80665,-10.20508 6.81739,-21.37403 11.63087,-33.1875 7.99121,0.15429 16.09375,0.38183 24.29102,0.67187 -4.65137,11.64844 -8.52832,22.67676 -11.24219,32.78223 -8.36426,-0.11523 -16.59864,-0.20507 -24.6797,-0.2666 z" /><path
                 id="path152"
                 style="fill:#71c9ed;fill-opacity:1;fill-rule:nonzero;stroke:none"
                 d="m 239.49819,-157.47014 c 16.85547,0.0937 34.28907,0.22656 52.10744,0.38672 0,-7.95606 1.35937,-16.92872 3.73828,-26.67774 -17.60059,-0.39356 -34.85255,-0.72168 -51.58205,-0.95118 -2.71387,10.1045 -4.26367,19.28712 -4.26367,27.2422 z" /><path
                 id="path154"
                 style="fill:#7bc8eb;fill-opacity:1;fill-rule:nonzero;stroke:none"
                 d="m 243.76186,-184.71234 c 16.7295,0.2295 33.98146,0.55762 51.58205,0.95118 2.37793,-9.74903 5.77637,-20.27344 9.8545,-31.33497 -17.02638,-0.99316 -33.79982,-1.82031 -50.19436,-2.39844 -4.65137,11.64844 -8.52832,22.67676 -11.24219,32.78223 z" /><path
                 id="path156"
                 style="fill:#8bc2ea;fill-opacity:1;fill-rule:nonzero;stroke:none"
                 d="m 207.08411,-218.40472 c 4.87012,-11.87208 10.55176,-24.39649 16.63868,-37.24708 7.75489,0 15.56837,0.15039 23.4336,0.43164 -6.01562,12.78223 -11.63086,25.24024 -16.44336,37.05372 -7.99219,-0.15528 -15.87403,-0.23828 -23.62892,-0.23828 z" /><path
                 id="path158"
                 style="fill:#8cc2e9;fill-opacity:1;fill-rule:nonzero;stroke:none"
                 d="m 230.71303,-218.16644 c 4.8125,-11.81348 10.42774,-24.27149 16.44336,-37.05372 7.86524,0.28125 15.78224,0.69433 23.7422,1.21875 -5.81446,12.58789 -11.24219,24.85743 -15.89454,36.50684 -8.19727,-0.29004 -16.29981,-0.51758 -24.29102,-0.67187 z" /><path
                 id="path160"
                 style="fill:#a6b9e0;fill-opacity:1;fill-rule:nonzero;stroke:none"
                 d="m 223.72279,-255.6518 c 6.08692,-12.85059 12.58008,-26.02735 19.07325,-39.20411 7.75489,0 15.49122,0.22168 23.21095,0.63769 -6.417,13.11036 -12.83399,26.21583 -18.8506,38.99806 -7.86523,-0.28125 -15.67871,-0.43164 -23.4336,-0.43164 z" /><path
                 id="path162"
                 style="fill:#a7b9df;fill-opacity:1;fill-rule:nonzero;stroke:none"
                 d="m 247.15639,-255.22016 c 6.01661,-12.78223 12.4336,-25.8877 18.8506,-38.99806 7.71973,0.41602 15.42285,1.02637 23.11231,1.80274 -6.20313,12.9209 -12.40528,25.82715 -18.22071,38.41407 -7.95996,-0.52442 -15.87696,-0.9375 -23.7422,-1.21875 z" /><path
                 id="path164"
                 style="fill:#91c3e4;fill-opacity:1;fill-rule:nonzero;stroke:none"
                 d="m 255.00405,-217.49457 c 16.39454,0.57813 33.16798,1.40528 50.19436,2.39844 4.07812,-11.0625 8.83594,-22.66016 13.93359,-34.55372 -16.21484,-1.80078 -32.31251,-3.30078 -48.23341,-4.35156 -5.81446,12.58789 -11.24219,24.85743 -15.89454,36.50684 z" /><path
                 id="path166"
                 style="fill:#aabadb;fill-opacity:1;fill-rule:nonzero;stroke:none"
                 d="m 270.89859,-254.00141 c 15.9209,1.05078 32.01857,2.55078 48.23341,4.35156 5.09669,-11.89355 10.53419,-24.08399 15.97169,-36.33008 -15.28419,-2.66211 -30.60646,-4.88184 -45.98439,-6.43555 -6.20313,12.9209 -12.40528,25.82715 -18.22071,38.41407 z" /><path
                 id="path168"
                 style="fill:#8bcddb;fill-opacity:1;fill-rule:nonzero;stroke:none"
                 d="m 291.60563,-157.08342 c 17.81739,0.16015 36.02052,0.34668 54.41506,0.5459 0,-7.95606 1.08886,-16.63282 2.99414,-25.87794 -18.12306,-0.49219 -36.0713,-0.95117 -53.67092,-1.3457 -2.37891,9.74902 -3.73828,18.72168 -3.73828,26.67774 z" /><path
                 id="path170"
                 style="fill:#92cbd9;fill-opacity:1;fill-rule:nonzero;stroke:none"
                 d="m 295.34391,-183.76116 c 17.59962,0.39453 35.54786,0.85351 53.67092,1.3457 1.90527,-9.24512 4.62793,-19.05957 7.89356,-29.29004 -17.40528,-1.24122 -34.68361,-2.39844 -51.70998,-3.39063 -4.07813,11.06153 -7.47657,21.58594 -9.8545,31.33497 z" /><path
                 id="path172"
                 style="fill:#a8d2c1;fill-opacity:1;fill-rule:nonzero;stroke:none"
                 d="m 346.02069,-156.53752 c 18.39453,0.20019 36.98243,0.41308 55.56935,0.62597 0,-7.95605 0.77832,-16.29297 2.1416,-24.96094 -18.29688,-0.52539 -36.59376,-1.05078 -54.71681,-1.54297 -1.90528,9.24512 -2.99414,17.92188 -2.99414,25.87794 z" /><path
                 id="path174"
                 style="fill:#adcfbf;fill-opacity:1;fill-rule:nonzero;stroke:none"
                 d="m 349.01483,-182.41546 c 18.12305,0.49219 36.41993,1.01758 54.71681,1.54297 1.36231,-8.66895 3.30958,-17.667 5.64551,-26.9463 -17.53125,-1.32324 -35.06348,-2.64648 -52.46876,-3.88671 -3.26563,10.23047 -5.98829,20.04492 -7.89356,29.29004 z" /><path
                 id="path176"
                 style="fill:#a2c6d4;fill-opacity:1;fill-rule:nonzero;stroke:none"
                 d="m 305.19841,-215.09613 c 17.02637,0.99219 34.3047,2.14941 51.70998,3.39063 3.2666,-10.23145 7.07812,-20.87989 11.16113,-31.79298 -16.39161,-2.25 -32.72364,-4.35059 -48.93752,-6.15137 -5.09765,11.89356 -9.85547,23.49122 -13.93359,34.55372 z" /><path
                 id="path178"
                 style="fill:#b6bdcc;fill-opacity:1;fill-rule:nonzero;stroke:none"
                 d="m 319.132,-249.64985 c 16.21388,1.80078 32.54591,3.90137 48.93752,6.15137 4.08301,-10.91309 8.43751,-22.09083 12.79298,-33.38184 -15.22755,-3.3291 -30.47462,-6.43653 -45.75881,-9.09961 -5.4375,12.24609 -10.875,24.43653 -15.97169,36.33008 z" /><path
                 id="path180"
                 style="fill:#b7cabb;fill-opacity:1;fill-rule:nonzero;stroke:none"
                 d="m 356.90839,-211.7055 c 6.5332,-20.4629 15.24414,-42.59279 23.95411,-65.17482 15.22754,3.32812 30.43653,6.8789 45.64552,10.42969 -6.22949,20.39453 -12.45899,40.07325 -17.13087,58.63184 -17.53125,-1.32324 -35.06348,-2.64648 -52.46876,-3.88671 z" /><path
                 id="path182"
                 style="fill:#bfaad2;fill-opacity:1;fill-rule:nonzero;stroke:none"
                 d="m 242.79604,-294.85591 c 6.49317,-13.17725 12.98536,-26.3545 19.07325,-39.20509 7.75488,0 15.41309,0.28516 22.98731,0.82031 -6.01562,12.79835 -12.43262,25.91212 -18.84961,39.02247 -7.71973,-0.41601 -15.45606,-0.63769 -23.21095,-0.63769 z" /><path
                 id="path184"
                 style="fill:#c0aad1;fill-opacity:1;fill-rule:nonzero;stroke:none"
                 d="m 266.00699,-294.21822 c 6.41699,-13.11035 12.83399,-26.22412 18.84961,-39.02247 7.5752,0.53516 15.06544,1.32032 22.48243,2.31934 -5.81445,12.64893 -12.01758,25.58546 -18.21973,38.50587 -7.68946,-0.77637 -15.39258,-1.38672 -23.11231,-1.80274 z" /><path
                 id="path186"
                 style="fill:#d296c2;fill-opacity:1;fill-rule:nonzero;stroke:none"
                 d="m 261.86929,-334.061 c 6.08692,-12.85059 11.76856,-25.375 16.6377,-37.24708 7.75489,0 15.34669,0.32764 22.79395,0.9419 -4.8125,11.8457 -10.42773,24.32764 -16.44434,37.12549 -7.57422,-0.53515 -15.23243,-0.82031 -22.98731,-0.82031 z" /><path
                 id="path188"
                 style="fill:#d296c1;fill-opacity:1;fill-rule:nonzero;stroke:none"
                 d="m 284.8566,-333.24069 c 6.01661,-12.79785 11.63184,-25.27979 16.44434,-37.12549 7.44727,0.61426 14.75196,1.51514 21.93263,2.66162 -4.65137,11.77198 -10.07911,24.1338 -15.89454,36.78321 -7.41699,-0.99902 -14.90723,-1.78418 -22.48243,-2.31934 z" /><path
                 id="path190"
                 style="fill:#c2acce;fill-opacity:1;fill-rule:nonzero;stroke:none"
                 d="m 289.1193,-292.41548 c 15.37793,1.55371 30.7002,3.77344 45.98439,6.43555 5.4375,-12.24561 10.875,-24.54737 15.97169,-36.66456 -14.35352,-3.42481 -28.90041,-6.2793 -43.73635,-8.27686 -5.81445,12.64893 -12.01758,25.58546 -18.21973,38.50587 z" /><path
                 id="path192"
                 style="fill:#d498bf;fill-opacity:1;fill-rule:nonzero;stroke:none"
                 d="m 307.33903,-330.92135 c 14.83594,1.99756 29.38283,4.85205 43.73635,8.27686 5.09765,-12.11768 9.85547,-24.05079 13.93359,-35.55958 -13.54297,-3.93115 -27.41309,-7.20703 -41.7754,-9.50049 -4.65137,11.77198 -10.07911,24.1338 -15.89454,36.78321 z" /><path
                 id="path194"
                 style="fill:#e080b2;fill-opacity:1;fill-rule:nonzero;stroke:none"
                 d="m 278.50699,-371.30808 c 4.87012,-11.87158 8.92774,-23.09082 11.76856,-33.33106 7.75488,0 15.29883,0.33545 22.65626,0.96485 -2.80762,10.25293 -6.81836,21.4624 -11.63087,33.30811 -7.44726,-0.61426 -15.03906,-0.9419 -22.79395,-0.9419 z" /><path
                 id="path196"
                 style="fill:#e181b1;fill-opacity:1;fill-rule:nonzero;stroke:none"
                 d="m 301.30094,-370.36618 c 4.81251,-11.84571 8.82325,-23.05518 11.63087,-33.30811 7.3584,0.6289 14.53028,1.55175 21.54395,2.72656 -2.71289,10.28955 -6.58985,21.4712 -11.24219,33.24317 -7.18067,-1.14648 -14.48536,-2.04736 -21.93263,-2.66162 z" /><path
                 id="path198"
                 style="fill:#e96ea5;fill-opacity:1;fill-rule:nonzero;stroke:none"
                 d="m 290.27555,-404.63914 c 2.84082,-10.24023 4.46387,-19.50147 4.46387,-27.45703 7.75488,0 15.28028,0.29638 22.6045,0.85205 0,8.02002 -1.60449,17.3169 -4.41211,27.56983 -7.35743,-0.6294 -14.90138,-0.96485 -22.65626,-0.96485 z" /><path
                 id="path200"
                 style="fill:#e96fa5;fill-opacity:1;fill-rule:nonzero;stroke:none"
                 d="m 312.93181,-403.67429 c 2.80762,-10.25293 4.41211,-19.54981 4.41211,-27.56983 7.32324,0.55566 14.44629,1.3706 21.39649,2.40771 0,8.20166 -1.55078,17.59913 -4.26465,27.88868 -7.01367,-1.17481 -14.18555,-2.09766 -21.54395,-2.72656 z" /><path
                 id="path202"
                 style="fill:#e183af;fill-opacity:1;fill-rule:nonzero;stroke:none"
                 d="m 323.23357,-367.70456 c 14.36231,2.29346 28.23243,5.56934 41.7754,9.50049 4.07813,-11.50879 7.47657,-22.59327 9.85548,-33.0127 -12.96876,-4.02686 -26.36134,-7.38233 -40.38869,-9.73096 -2.71289,10.28955 -6.58985,21.4712 -11.24219,33.24317 z" /><path
                 id="path204"
                 style="fill:#ea71a4;fill-opacity:1;fill-rule:nonzero;stroke:none"
                 d="m 334.47576,-400.94773 c 14.02735,2.34863 27.41993,5.7041 40.38869,9.73096 2.37793,-10.41992 3.7373,-20.1753 3.7373,-29.0254 -12.75,-3.55615 -25.96095,-6.52002 -39.86134,-8.59424 0,8.20166 -1.55078,17.59913 -4.26465,27.88868 z" /><path
                 id="path206"
                 style="fill:#cab0c2;fill-opacity:1;fill-rule:nonzero;stroke:none"
                 d="m 335.10369,-285.97993 c 15.28419,2.66308 30.53126,5.77051 45.75881,9.09961 4.35547,-11.292 8.71094,-22.6963 12.79394,-34.06251 -14.06543,-4.28125 -28.22657,-8.27686 -42.58106,-11.70166 -5.09669,12.11719 -10.53419,24.41895 -15.97169,36.66456 z" /><path
                 id="path208"
                 style="fill:#d99eb5;fill-opacity:1;fill-rule:nonzero;stroke:none"
                 d="m 351.07538,-322.64449 c 14.35449,3.4248 28.51563,7.42041 42.58106,11.70166 4.08301,-11.36572 7.89356,-22.69287 11.16017,-33.8296 -13.05079,-4.91406 -26.26564,-9.50049 -39.80764,-13.43164 -4.07812,11.50879 -8.83594,23.4419 -13.93359,35.55958 z" /><path
                 id="path210"
                 style="fill:#d3b5ad;fill-opacity:1;fill-rule:nonzero;stroke:none"
                 d="m 380.8625,-276.88032 c 8.71094,-22.58302 17.4209,-45.61866 23.95411,-67.89211 13.0498,4.91358 25.93653,10.15528 38.82325,15.39698 -4.67188,21.42041 -10.90137,42.53028 -17.13184,62.92482 -15.20899,-3.55079 -30.41798,-7.10157 -45.64552,-10.42969 z" /><path
                 id="path212"
                 style="fill:#e48ca9;fill-opacity:1;fill-rule:nonzero;stroke:none"
                 d="m 365.00897,-358.20407 c 13.542,3.93115 26.75685,8.51758 39.80764,13.43164 3.2666,-11.13672 5.98828,-22.08301 7.89355,-32.68701 -12.33301,-5.03321 -24.87794,-9.73096 -37.84571,-13.75733 -2.37891,10.41943 -5.77735,21.50391 -9.85548,33.0127 z" /><path
                 id="path214"
                 style="fill:#eb7b9f;fill-opacity:1;fill-rule:nonzero;stroke:none"
                 d="m 374.86445,-391.21677 c 12.96777,4.02637 25.5127,8.72412 37.84571,13.75733 1.90528,-10.60401 2.99414,-20.86524 2.99414,-30.63233 -12.06055,-4.44532 -24.35157,-8.59424 -37.10255,-12.1504 0,8.8501 -1.35937,18.60548 -3.7373,29.0254 z" /><path
                 id="path216"
                 style="fill:#e8979c;fill-opacity:1;fill-rule:nonzero;stroke:none"
                 d="m 404.81661,-344.77243 c 13.0498,4.91358 25.93653,10.15528 38.82325,15.39698 2.33594,-10.71045 4.28321,-21.49805 5.64551,-32.31299 -12.1211,-5.36915 -24.2422,-10.7378 -36.57521,-15.771 -1.90527,10.604 -4.62695,21.55029 -7.89355,32.68701 z" /><path
                 id="path218"
                 style="fill:#ee8995;fill-opacity:1;fill-rule:nonzero;stroke:none"
                 d="m 412.71016,-377.45944 c 12.33301,5.0332 24.45411,10.40185 36.57521,15.771 1.36328,-10.81495 2.1416,-21.65675 2.1416,-32.47511 -11.83106,-4.7417 -23.66211,-9.4834 -35.72267,-13.92822 0,9.76709 -1.08886,20.02832 -2.99414,30.63233 z" /><path
                 id="path220"
                 style="fill:#c5d69f;fill-opacity:1;fill-rule:nonzero;stroke:none"
                 d="m 401.59004,-155.91155 c 18.58692,0.21289 37.17482,0.42676 55.56936,0.62598 0,-7.95606 0.46875,-15.95411 1.28808,-24.04493 -18.12207,-0.49219 -36.41895,-1.01758 -54.71584,-1.54199 -1.36328,8.66797 -2.1416,17.00489 -2.1416,24.96094 z" /><path
                 id="path222"
                 style="fill:#c7d39e;fill-opacity:1;fill-rule:nonzero;stroke:none"
                 d="m 403.73164,-180.87249 c 18.29689,0.52441 36.59377,1.0498 54.71584,1.54199 0.82032,-8.09082 1.99219,-16.27442 3.39746,-24.60157 -17.40527,-1.24023 -34.93653,-2.56347 -52.46779,-3.88672 -2.33593,9.2793 -4.2832,18.27735 -5.64551,26.9463 z" /><path
                 id="path224"
                 style="fill:#ded977;fill-opacity:1;fill-rule:nonzero;stroke:none"
                 d="m 457.1594,-155.28557 c 18.39453,0.20019 36.59767,0.38672 54.41506,0.5459 0,-7.95508 0.19824,-15.65821 0.54492,-23.24512 -17.60059,-0.39356 -35.54884,-0.85352 -53.6719,-1.34571 -0.81933,8.09082 -1.28808,16.08887 -1.28808,24.04493 z" /><path
                 id="path226"
                 style="fill:#dfd676;fill-opacity:1;fill-rule:nonzero;stroke:none"
                 d="m 458.44748,-179.3305 c 18.12306,0.49219 36.07131,0.95215 53.6719,1.34571 0.34668,-7.5879 0.84179,-15.05958 1.43652,-22.55665 -17.02637,-0.99219 -34.30568,-2.15039 -51.71096,-3.39063 -1.40527,8.32715 -2.57714,16.51075 -3.39746,24.60157 z" /><path
                 id="path228"
                 style="fill:#cece9b;fill-opacity:1;fill-rule:nonzero;stroke:none"
                 d="m 409.37715,-207.81879 c 4.67188,-18.55859 10.90138,-38.23731 17.13087,-58.63184 15.20996,3.55078 30.41896,7.10156 45.6465,10.43066 -3.74903,18.20606 -7.49805,35.4336 -10.30958,52.0879 -17.40527,-1.24023 -34.93653,-2.56347 -52.46779,-3.88672 z" /><path
                 id="path230"
                 style="fill:#e2d175;fill-opacity:1;fill-rule:nonzero;stroke:none"
                 d="m 461.84494,-203.93207 c 2.81153,-16.6543 6.56055,-33.88184 10.30958,-52.0879 15.22754,3.32813 30.47462,6.43555 45.7588,9.09864 -1.58496,16.29688 -3.16894,31.38672 -4.35742,46.37989 -17.02637,-0.99219 -34.30568,-2.15039 -51.71096,-3.39063 z" /><path
                 id="path232"
                 style="fill:#f1db4d;fill-opacity:1;fill-rule:nonzero;stroke:none"
                 d="m 511.57446,-154.73967 c 0,-15.91114 0.79296,-30.8086 1.98144,-45.80177 17.0254,0.99219 33.79884,1.81934 50.19338,2.39844 -0.04,13.81836 -0.0674,27.87793 -0.0674,43.79005 -16.85646,-0.0937 -34.28908,-0.22657 -52.10744,-0.38672 z" /><path
                 id="path234"
                 style="fill:#ffde22;fill-opacity:1;fill-rule:nonzero;stroke:none"
                 d="m 563.6819,-154.35295 c 0,-15.91212 0.0273,-29.97169 0.0674,-43.79005 8.19727,0.28906 16.29981,0.5166 24.292,0.67187 0.28125,13.48926 0.46875,27.31446 0.46875,43.22658 -8.11524,-0.0254 -16.39942,-0.0615 -24.82813,-0.1084 z" /><path
                 id="path236"
                 style="fill:#ffde0b;fill-opacity:1;fill-rule:nonzero;stroke:none"
                 d="m 588.51003,-154.24455 c 0,-15.91212 -0.1875,-29.73732 -0.46875,-43.22658 7.99219,0.15528 15.87305,0.23731 23.62794,0.23731 0.3955,13.37305 0.65918,27.11524 0.65918,43.02735 -7.75587,0 -15.70313,-0.0137 -23.81837,-0.0381 z" /><path
                 id="path238"
                 style="fill:#f2d34d;fill-opacity:1;fill-rule:nonzero;stroke:none"
                 d="m 513.5559,-200.54144 c 1.18848,-14.99317 2.77246,-30.08301 4.35742,-46.37989 15.28419,2.66308 30.60646,4.88183 45.9844,6.43555 -0.0537,14.94629 -0.10743,28.52442 -0.14844,42.34278 -16.39454,-0.5791 -33.16798,-1.40625 -50.19338,-2.39844 z" /><path
                 id="path240"
                 style="fill:#fdd527;fill-opacity:1;fill-rule:nonzero;stroke:none"
                 d="m 563.74928,-198.143 c 0.041,-13.81836 0.0947,-27.39649 0.14844,-42.34278 7.68945,0.77636 15.39258,1.38672 23.11231,1.80273 0.375,14.56836 0.75,27.72266 1.03125,41.21192 -7.99219,-0.15527 -16.09473,-0.38281 -24.292,-0.67187 z" /><path
                 id="path242"
                 style="fill:#ffd616;fill-opacity:1;fill-rule:nonzero;stroke:none"
                 d="m 588.04128,-197.47113 c -0.28125,-13.48926 -0.65625,-26.64356 -1.03125,-41.21192 7.71973,0.41602 15.45606,0.6377 23.21094,0.6377 0.52735,14.43555 1.05372,27.43848 1.44825,40.81153 -7.75489,0 -15.63575,-0.082 -23.62794,-0.23731 z" /><path
                 id="path244"
                 style="fill:#dfbb92;fill-opacity:1;fill-rule:nonzero;stroke:none"
                 d="m 426.50802,-266.45063 c 6.23047,-20.39454 12.45996,-41.50441 17.13184,-62.92482 12.88672,5.2417 25.77345,10.48291 38.82423,15.39698 -2.8125,20.56787 -6.56055,39.75245 -10.30957,57.9585 -15.22754,-3.3291 -30.43654,-6.87988 -45.6465,-10.43066 z" /><path
                 id="path246"
                 style="fill:#eac172;fill-opacity:1;fill-rule:nonzero;stroke:none"
                 d="m 472.15452,-256.01997 c 3.74902,-18.20605 7.49707,-37.39063 10.30957,-57.9585 13.04981,4.91406 26.26466,9.50049 39.80666,13.43164 -1.18848,19.82373 -2.77246,37.32764 -4.35743,53.6255 -15.28418,-2.66309 -30.53126,-5.77051 -45.7588,-9.09864 z" /><path
                 id="path248"
                 style="fill:#eca289;fill-opacity:1;fill-rule:nonzero;stroke:none"
                 d="m 443.63986,-329.37545 c 12.88672,5.2417 25.77345,10.48291 38.82423,15.39698 1.40528,-10.2837 2.57715,-20.91309 3.39649,-31.93898 -12.33301,-5.03369 -24.45411,-10.40234 -36.57521,-15.77099 -1.3623,10.81494 -3.30957,21.60254 -5.64551,32.31299 z" /><path
                 id="path250"
                 style="fill:#f09686;fill-opacity:1;fill-rule:nonzero;stroke:none"
                 d="m 449.28537,-361.68844 c 12.1211,5.36865 24.2422,10.7373 36.57521,15.77099 0.82031,-11.02637 1.28906,-22.44824 1.28906,-34.31739 -12.06055,-4.44531 -23.89161,-9.18701 -35.72267,-13.92871 0,10.81836 -0.77832,21.66016 -2.1416,32.47511 z" /><path
                 id="path252"
                 style="fill:#f1ad6f;fill-opacity:1;fill-rule:nonzero;stroke:none"
                 d="m 482.46409,-313.97847 c 2.81153,-20.56739 4.68555,-42.51808 4.68555,-66.25637 12.06055,4.44483 24.35157,8.59376 37.10255,12.14991 0,25.57227 -0.79297,47.71436 -1.98144,67.5381 -13.542,-3.93115 -26.75685,-8.51758 -39.80666,-13.43164 z" /><path
                 id="path254"
                 style="fill:#f4c64f;fill-opacity:1;fill-rule:nonzero;stroke:none"
                 d="m 517.91332,-246.92133 c 1.58497,-16.29786 3.16895,-33.80177 4.35743,-53.6255 13.54297,3.93115 27.41309,7.20654 41.7754,9.50049 -0.04,19.29688 -0.0947,35.61329 -0.14843,50.56056 -15.37794,-1.55372 -30.70021,-3.77247 -45.9844,-6.43555 z" /><path
                 id="path256"
                 style="fill:#fccb2e;fill-opacity:1;fill-rule:nonzero;stroke:none"
                 d="m 563.89772,-240.48578 c 0.0537,-14.94727 0.10839,-31.26368 0.14843,-50.56056 7.18165,1.14648 14.48536,2.04687 21.93263,2.66113 0.28125,19.1504 0.65625,35.1338 1.03125,49.70216 -7.71973,-0.41601 -15.42286,-1.02637 -23.11231,-1.80273 z" /><path
                 id="path258"
                 style="fill:#fdcc21;fill-opacity:1;fill-rule:nonzero;stroke:none"
                 d="m 587.01003,-238.68305 c -0.375,-14.56836 -0.75,-30.55176 -1.03125,-49.70216 7.44824,0.61426 15.03907,0.94239 22.79395,0.94239 0.39551,19.09766 0.92188,34.96289 1.44824,49.39747 -7.75488,0 -15.49121,-0.22168 -23.21094,-0.6377 z" /><path
                 id="path260"
                 style="fill:#f7b753;fill-opacity:1;fill-rule:nonzero;stroke:none"
                 d="m 522.27075,-300.54683 c 1.18847,-19.82374 1.98144,-41.96583 1.98144,-67.5381 12.75001,3.55664 25.96095,6.52002 39.86134,8.59424 0,26.86915 -0.0273,49.14698 -0.0674,68.44435 -14.36231,-2.29395 -28.23243,-5.56934 -41.7754,-9.50049 z" /><path
                 id="path262"
                 style="fill:#f9bd39;fill-opacity:1;fill-rule:nonzero;stroke:none"
                 d="m 564.04615,-291.04634 c 0.04,-19.29737 0.0674,-41.5752 0.0674,-68.44435 6.9502,1.0376 14.07325,1.85254 21.3965,2.4082 0,27.23243 0.1875,49.54787 0.46875,68.69728 -7.44727,-0.61426 -14.75098,-1.51465 -21.93263,-2.66113 z" /><path
                 id="path264"
                 style="fill:#fabe31;fill-opacity:1;fill-rule:nonzero;stroke:none"
                 d="m 585.97878,-288.38521 c -0.28125,-19.14941 -0.46875,-41.46485 -0.46875,-68.69728 7.32422,0.55567 14.84961,0.85157 22.6045,0.85157 0,27.36133 0.26367,49.69044 0.6582,68.7881 -7.75488,0 -15.34571,-0.32813 -22.79395,-0.94239 z" /><path
                 id="path266"
                 style="fill:#ffde00;fill-opacity:1;fill-rule:nonzero;stroke:none"
                 d="m 612.3284,-154.20647 c 0,-31.82422 -1.05371,-54.96876 -2.10743,-83.83888 19.38966,0 38.71681,-7.00489 58.01174,-17.51368 0.88867,33.05079 1.77832,61.27052 1.77832,93.09475 -19.09864,4.95508 -38.29298,8.25781 -57.68263,8.25781 z" /><path
                 id="path268"
                 style="fill:#ffdd0a;fill-opacity:1;fill-rule:nonzero;stroke:none"
                 d="m 670.01103,-162.46428 c 19.09767,-4.95508 38.09767,-11.56055 57.09768,-18.167 0,-15.91211 -0.13184,-33.71485 -0.3291,-52.82032 -19.08204,9.05469 -38.16505,18.10938 -57.32424,24.90039 0.33301,15.16407 0.55566,30.17481 0.55566,46.08693 z" /><path
                 id="path270"
                 style="fill:#fed515;fill-opacity:1;fill-rule:nonzero;stroke:none"
                 d="m 669.45537,-208.55121 c 19.15919,-6.79101 38.2422,-15.8457 57.32424,-24.90039 -0.19727,-19.10547 -0.46094,-39.51368 -0.72363,-60.63771 -19.26368,14.01074 -38.52736,28.02247 -57.82327,38.53028 0.44434,16.5254 0.88867,31.84278 1.22266,47.00782 z" /><path
                 id="path272"
                 style="fill:#fecc1b;fill-opacity:1;fill-rule:nonzero;stroke:none"
                 d="m 610.22097,-238.04535 c 19.38966,0 38.71681,-7.00489 58.01174,-17.51368 -0.44433,-16.52539 -0.88867,-34.25782 -1.22168,-54.25196 -19.43164,13.4209 -38.84864,22.36817 -58.2383,22.36817 0.39551,19.09766 0.92188,34.96289 1.44824,49.39747 z" /><path
                 id="path274"
                 style="fill:#fbbf2d;fill-opacity:1;fill-rule:nonzero;stroke:none"
                 d="m 608.77273,-287.44282 c 19.38966,0 38.80666,-8.94727 58.2383,-22.36817 -0.333,-19.99464 -0.55566,-42.25099 -0.55566,-67.82277 -19.49317,12.8418 -38.95119,21.40284 -58.34084,21.40284 0,27.36133 0.26367,49.69044 0.6582,68.7881 z" /><path
                 id="path276"
                 style="fill:#fccb22;fill-opacity:1;fill-rule:nonzero;stroke:none"
                 d="m 668.23271,-255.55903 c 19.29591,-10.50781 38.55959,-24.51954 57.82327,-38.53028 -0.26368,-21.12452 -0.52735,-42.96388 -0.72462,-64.93165 -19.44434,17.89453 -38.88966,35.78907 -58.32033,49.20997 0.33301,19.99414 0.77735,37.72657 1.22168,54.25196 z" /><path
                 id="path278"
                 style="fill:#fabd30;fill-opacity:1;fill-rule:nonzero;stroke:none"
                 d="m 667.01103,-309.81099 c 19.43067,-13.4209 38.87599,-31.31544 58.32033,-49.20997 -0.19726,-21.96778 -0.3291,-44.06398 -0.3291,-65.70021 -19.52735,17.12256 -39.05372,34.24512 -58.54689,47.08741 0,25.57178 0.22266,47.82813 0.55566,67.82277 z" /><path
                 id="path280"
                 style="fill:#f2db21;fill-opacity:1;fill-rule:nonzero;stroke:none"
                 d="m 727.10871,-180.63128 c 19.00098,-6.60645 38.00099,-13.21289 57.09865,-18.16797 0,-7.95508 -0.01,-17.08204 -0.0283,-27.10059 -19.11426,5.46972 -38.13771,12.76269 -57.16017,20.05566 0.0576,8.82813 0.0898,17.25684 0.0898,25.2129 z" /><path
                 id="path282"
                 style="fill:#f2d922;fill-opacity:1;fill-rule:nonzero;stroke:none"
                 d="m 727.01887,-205.84418 c 19.02246,-7.29297 38.04591,-14.58594 57.16017,-20.05566 -0.0176,-10.01758 -0.0439,-20.92774 -0.0742,-32.45118 -19.15918,6.79102 -38.2422,15.84473 -57.32521,24.89942 0.0986,9.55273 0.18164,18.78028 0.23926,27.60742 z" /><path
                 id="path284"
                 style="fill:#f3d426;fill-opacity:1;fill-rule:nonzero;stroke:none"
                 d="m 726.77961,-233.4516 c 19.08301,-9.05469 38.16603,-18.1084 57.32521,-24.89942 -0.0615,-23.04688 -0.14453,-48.5464 -0.22656,-74.26906 -19.29493,10.5083 -38.55861,24.51954 -57.82228,38.53077 0.26269,21.12403 0.52636,41.53224 0.72363,60.63771 z" /><path
                 id="path286"
                 style="fill:#dcd735;fill-opacity:1;fill-rule:nonzero;stroke:none"
                 d="m 784.20736,-198.79925 c 19.09767,-4.9541 38.29299,-8.25782 57.68264,-8.25782 0,-7.95605 0,-17.39941 0,-27.95899 -19.38965,0 -38.59572,3.64649 -57.71096,9.11622 0.0186,10.01855 0.0283,19.14551 0.0283,27.10059 z" /><path
                 id="path288"
                 style="fill:#ddd635;fill-opacity:1;fill-rule:nonzero;stroke:none"
                 d="m 784.17904,-225.89984 c 19.11524,-5.46973 38.32131,-9.11622 57.71096,-9.11622 0,-10.55859 0,-22.23438 0,-34.65332 -19.38965,0 -38.62599,4.52734 -57.78518,11.31836 0.0303,11.52344 0.0566,22.4336 0.0742,32.45118 z" /><path
                 id="path290"
                 style="fill:#e1d237;fill-opacity:1;fill-rule:nonzero;stroke:none"
                 d="m 784.10482,-258.35102 c 19.15919,-6.79102 38.39553,-11.31836 57.78518,-11.31836 0,-24.8379 0,-52.65138 0,-80.46486 -19.38965,0 -38.71681,7.00586 -58.01174,17.51416 0.082,25.72266 0.16504,51.22218 0.22656,74.26906 z" /><path
                 id="path292"
                 style="fill:#f5c82d;fill-opacity:1;fill-rule:nonzero;stroke:none"
                 d="m 726.05598,-294.08931 c 19.26367,-14.01123 38.52735,-28.02247 57.82228,-38.53077 -0.082,-25.72315 -0.16406,-51.66993 -0.22656,-75.61085 -19.43067,13.4209 -38.87502,31.31543 -58.32034,49.20997 0.19727,21.96777 0.46094,43.80713 0.72462,64.93165 z" /><path
                 id="path294"
                 style="fill:#f7ba36;fill-opacity:1;fill-rule:nonzero;stroke:none"
                 d="m 725.33136,-359.02096 c 19.44532,-17.89454 38.88967,-35.78907 58.32034,-49.20997 -0.0303,-11.97071 -0.0566,-23.43946 -0.0742,-34.12892 -19.47559,13.73585 -38.98048,32.0503 -58.4844,50.36427 0.0576,10.97461 0.13965,21.99073 0.23828,32.97462 z" /><path
                 id="path296"
                 style="fill:#f8b33b;fill-opacity:1;fill-rule:nonzero;stroke:none"
                 d="m 725.09308,-391.99558 c 19.50392,-18.31397 39.00881,-36.62842 58.4844,-50.36427 -0.0186,-10.68896 -0.0283,-20.59815 -0.0283,-29.44873 -19.49317,12.84228 -39.01955,29.96484 -58.5469,47.08741 0,10.81836 0.0332,21.75147 0.0908,32.72559 z" /><path
                 id="path298"
                 style="fill:#ebc53a;fill-opacity:1;fill-rule:nonzero;stroke:none"
                 d="m 783.87826,-332.62008 c 19.29493,-10.5083 38.62209,-17.51416 58.01174,-17.51416 0,-27.81349 0,-55.62697 0,-80.46486 -19.38965,0 -38.80665,8.94726 -58.2383,22.36817 0.0625,23.94092 0.14453,49.8877 0.22656,75.61085 z" /><path
                 id="path300"
                 style="fill:#f4b63d;fill-opacity:1;fill-rule:nonzero;stroke:none"
                 d="m 783.6517,-408.23093 c 19.43165,-13.42091 38.84865,-22.36817 58.2383,-22.36817 0,-12.41895 0,-24.09425 0,-34.65333 -19.38965,0 -38.83693,9.15674 -58.31252,22.89258 0.0176,10.68946 0.0439,22.15821 0.0742,34.12892 z" /><path
                 id="path302"
                 style="fill:#f6b03f;fill-opacity:1;fill-rule:nonzero;stroke:none"
                 d="m 783.57748,-442.35985 c 19.47559,-13.73584 38.92287,-22.89258 58.31252,-22.89258 0,-10.55957 0,-20.00342 0,-27.95899 -19.38965,0 -38.84767,8.56104 -58.34084,21.40284 0,8.85058 0.01,18.75977 0.0283,29.44873 z" /><path
                 id="path304"
                 style="fill:#ec66a1;fill-opacity:1;fill-rule:nonzero;stroke:none"
                 d="m 5.7597254e-5,-432.09617 c 188.151432402746,-40.91652 215.749102402746,0 294.739362402746,0 0,-66.06984 -57.76858,-98.04299 -57.76858,-164.11283 -78.99026,0 -157.980521,0 -236.970782402746,0 0,66.06984 0,98.04299 0,164.11283 z" /><path
                 id="path306"
                 style="fill:#ec66a1;fill-opacity:1;fill-rule:nonzero;stroke:none"
                 d="m 294.73942,-432.09617 c 0,-33.03517 -14.44239,-57.54591 -28.88478,-82.05666 15.51075,0 29.51759,0.59277 42.39845,1.62988 15.24415,25.32569 30.48732,50.65138 30.48732,83.68654 -13.9004,-2.0747 -28.49024,-3.25976 -44.00099,-3.25976 z" /><path
                 id="path308"
                 style="fill:#ed6aa0;fill-opacity:1;fill-rule:nonzero;stroke:none"
                 d="m 338.74041,-428.83641 c 0,-33.03516 -15.24317,-58.36085 -30.48732,-83.68654 12.88087,1.0376 24.63478,2.51905 35.63674,4.29737 17.35645,27.47412 34.71192,54.94825 34.71192,87.98341 -12.75,-3.55615 -25.96095,-6.52002 -39.86134,-8.59424 z" /><path
                 id="path310"
                 style="fill:#ee739b;fill-opacity:1;fill-rule:nonzero;stroke:none"
                 d="m 378.60175,-420.24217 c 0,-16.51758 -4.33887,-31.64502 -10.84668,-46.07716 12.2041,3.00049 23.85743,6.50147 35.23536,10.25196 7.62793,15.57129 12.71387,31.45801 12.71387,47.9756 -12.06055,-4.44532 -24.35157,-8.59424 -37.10255,-12.1504 z" /><path
                 id="path312"
                 style="fill:#ef8092;fill-opacity:1;fill-rule:nonzero;stroke:none"
                 d="m 415.7043,-408.09177 c 0,-16.51759 -5.08594,-32.40431 -12.71387,-47.9756 11.37794,3.75049 22.48048,7.75147 33.58205,11.75196 8.91308,16.87744 14.85449,33.63428 14.85449,50.15186 -11.83106,-4.7417 -23.66211,-9.4834 -35.72267,-13.92822 z" /><path
                 id="path314"
                 style="fill:#ed709b;fill-opacity:1;fill-rule:nonzero;stroke:none"
                 d="m 367.75507,-466.31933 c -6.50879,-14.43213 -15.18751,-28.16943 -23.86524,-41.90625 11.00195,1.77783 21.25391,3.85254 31.12891,6.07519 10.17188,15.25587 20.34278,30.51173 27.97169,46.08302 -11.37793,-3.75049 -23.03126,-7.25147 -35.23536,-10.25196 z" /><path
                 id="path316"
                 style="fill:#ee7b93;fill-opacity:1;fill-rule:nonzero;stroke:none"
                 d="m 402.99043,-456.06737 c -7.62891,-15.57129 -17.79981,-30.82715 -27.97169,-46.08302 9.87501,2.22266 19.37501,4.59326 28.87501,6.96436 11.8838,16.99659 23.76661,33.99366 32.67873,50.87062 -11.10157,-4.00049 -22.20411,-8.00147 -33.58205,-11.75196 z" /><path
                 id="path318"
                 style="fill:#ec66a1;fill-opacity:1;fill-rule:nonzero;stroke:none"
                 d="m 265.85464,-514.15283 c -14.44239,-24.51075 -28.8838,-49.02101 -28.8838,-82.05617 15.50977,0 28.93458,0 40.79494,0 0,33.03516 15.24414,58.36036 30.48731,83.68605 -12.88086,-1.03711 -26.8877,-1.62988 -42.39845,-1.62988 z" /><path
                 id="path320"
                 style="fill:#ec68a0;fill-opacity:1;fill-rule:nonzero;stroke:none"
                 d="m 308.25309,-512.52295 c -15.24317,-25.32569 -30.48731,-50.65089 -30.48731,-83.68605 11.86133,0 22.15821,0 31.41212,0 0,33.03516 17.35547,60.50929 34.71193,87.98342 -11.00196,-1.77832 -22.75587,-3.25977 -35.63674,-4.29737 z" /><path
                 id="path322"
                 style="fill:#ed6e9c;fill-opacity:1;fill-rule:nonzero;stroke:none"
                 d="m 343.88983,-508.22558 c 22.00489,3.55615 41.00392,8.29785 60.00392,13.03955 -11.88379,-16.99707 -23.76661,-33.99415 -32.67872,-50.8711 -15.79493,-1.48194 -31.58888,-2.96338 -51.18947,-4.07471 6.50781,14.43213 15.18653,28.16895 23.86427,41.90626 z" /><path
                 id="path324"
                 style="fill:#ed6a9e;fill-opacity:1;fill-rule:nonzero;stroke:none"
                 d="m 320.02556,-550.13184 c 19.60059,1.11133 35.39454,2.59277 51.18947,4.07471 -8.91309,-16.87696 -14.8545,-33.63429 -14.8545,-50.15187 -14.33789,0 -28.67481,0 -47.18263,0 0,16.51758 4.33887,31.64454 10.84766,46.07716 z" /><path
                 id="path326"
                 style="fill:#f18e85;fill-opacity:1;fill-rule:nonzero;stroke:none"
                 d="m 451.42697,-394.16355 c 0,-16.51758 -5.94141,-33.27442 -14.85449,-50.15186 11.10254,4.00097 22.20508,8.00146 33.58302,11.75244 10.19629,18.18262 16.99414,35.81055 16.99414,52.32813 -12.06055,-4.44531 -23.89161,-9.18701 -35.72267,-13.92871 z" /><path
                 id="path328"
                 style="fill:#f29a72;fill-opacity:1;fill-rule:nonzero;stroke:none"
                 d="m 487.14964,-380.23484 c 0,-16.51758 -6.79785,-34.14551 -16.99414,-52.32813 11.37793,3.75049 23.03125,7.25098 35.23536,10.25147 11.31641,19.32227 18.86133,37.70948 18.86133,54.22657 -12.75098,-3.55615 -25.042,-7.70508 -37.10255,-12.14991 z" /><path
                 id="path330"
                 style="fill:#f08687;fill-opacity:1;fill-rule:nonzero;stroke:none"
                 d="m 436.57248,-444.31541 c -8.91212,-16.87696 -20.79493,-33.87403 -32.67873,-50.87062 9.50001,2.37061 19.00001,4.74121 28.87501,6.96387 13.59473,18.73828 27.19044,37.47608 37.38674,55.65919 -11.37794,-3.75098 -22.48048,-7.75147 -33.58302,-11.75244 z" /><path
                 id="path332"
                 style="fill:#f19078;fill-opacity:1;fill-rule:nonzero;stroke:none"
                 d="m 470.1555,-432.56297 c -10.1963,-18.18311 -23.79201,-36.92091 -37.38674,-55.65919 9.87501,2.22266 20.12696,4.29736 31.12892,6.07519 15.08887,20.25684 30.17677,40.51368 41.49318,59.83547 -12.20411,-3.00049 -23.85743,-6.50098 -35.23536,-10.25147 z" /><path
                 id="path334"
                 style="fill:#f4a45b;fill-opacity:1;fill-rule:nonzero;stroke:none"
                 d="m 524.25219,-368.08493 c 12.75001,3.55664 25.96095,6.52002 39.86134,8.59424 0,-8.25879 -2.01757,-17.11915 -5.5498,-26.43067 -13.81251,-1.98535 -26.89845,-4.82178 -39.49806,-8.2251 3.2998,9.07666 5.18652,17.80323 5.18652,26.06153 z" /><path
                 id="path336"
                 style="fill:#f39e60;fill-opacity:1;fill-rule:nonzero;stroke:none"
                 d="m 519.06567,-394.14646 c 12.59961,3.40332 25.68555,6.23975 39.49806,8.2251 -3.53125,-9.31201 -8.57715,-19.07471 -14.63086,-29.13868 -13.58204,-1.75049 -26.33693,-4.25049 -38.54201,-7.25146 5.6582,9.66113 10.37403,19.08838 13.67481,28.16504 z" /><path
                 id="path338"
                 style="fill:#f6aa48;fill-opacity:1;fill-rule:nonzero;stroke:none"
                 d="m 564.11353,-359.49069 c 13.9004,2.07471 28.49123,3.25977 44.001,3.25977 0,-8.25831 -2.06836,-17.16993 -5.6875,-26.57081 -15.50978,0 -30.0508,-1.13428 -43.8633,-3.11963 3.53223,9.31152 5.5498,18.17188 5.5498,26.43067 z" /><path
                 id="path340"
                 style="fill:#f5a44f;fill-opacity:1;fill-rule:nonzero;stroke:none"
                 d="m 558.56373,-385.92136 c 13.8125,1.98535 28.35352,3.11963 43.8633,3.11963 -3.61915,-9.40088 -8.79005,-19.29102 -14.99415,-29.50782 -15.51075,0 -29.91896,-1 -43.50001,-2.75049 6.05371,10.06397 11.09961,19.82667 14.63086,29.13868 z" /><path
                 id="path342"
                 style="fill:#f29766;fill-opacity:1;fill-rule:nonzero;stroke:none"
                 d="m 505.39086,-422.3115 c 12.20508,3.00097 24.95997,5.50097 38.54201,7.25146 -6.0547,-10.06397 -13.11817,-20.42822 -20.68556,-30.94336 -13.25586,-1.41846 -25.54395,-3.44434 -37.18849,-5.875 7.07325,10.01123 13.67383,19.90625 19.33204,29.5669 z" /><path
                 id="path344"
                 style="fill:#f1916f;fill-opacity:1;fill-rule:nonzero;stroke:none"
                 d="m 486.05882,-451.8784 c 11.64454,2.43066 23.93263,4.45654 37.18849,5.875 -7.56836,-10.51514 -15.64063,-21.18067 -23.7129,-31.8462 -12.88086,-1.0376 -24.63477,-2.51904 -35.63673,-4.29737 7.54395,10.12843 15.08887,20.25684 22.16114,30.26857 z" /><path
                 id="path346"
                 style="fill:#f39d58;fill-opacity:1;fill-rule:nonzero;stroke:none"
                 d="m 543.93287,-415.06004 c 13.58105,1.75049 27.98926,2.75049 43.50001,2.75049 -6.20508,-10.2168 -13.44336,-20.75928 -21.19923,-31.46582 -15.50977,0 -29.73145,-0.81006 -42.98634,-2.22803 7.56739,10.51514 14.63086,20.87939 20.68556,30.94336 z" /><path
                 id="path348"
                 style="fill:#f29664;fill-opacity:1;fill-rule:nonzero;stroke:none"
                 d="m 523.24731,-446.0034 c 13.25489,1.41797 27.47657,2.22803 42.98634,2.22803 -7.75586,-10.70606 -16.02832,-21.5752 -24.30079,-32.44435 -15.51074,0 -29.51758,-0.59277 -42.39845,-1.62988 8.07227,10.66553 16.14454,21.33106 23.7129,31.8462 z" /><path
                 id="path350"
                 style="fill:#ee7d8e;fill-opacity:1;fill-rule:nonzero;stroke:none"
                 d="m 403.89375,-495.18603 c 19.00001,4.74121 37.99904,9.48291 60.00393,13.03906 -15.08887,-20.25684 -30.17677,-40.51367 -41.49318,-59.83546 -19.60157,-1.11132 -35.39552,-2.59326 -51.18947,-4.0747 8.91211,16.87695 20.79493,33.87403 32.67872,50.8711 z" /><path
                 id="path352"
                 style="fill:#ed7297;fill-opacity:1;fill-rule:nonzero;stroke:none"
                 d="m 371.21503,-546.05713 c 15.79395,1.48144 31.5879,2.96338 51.18947,4.0747 -11.31739,-19.32178 -18.86133,-37.70899 -18.86133,-54.22657 -18.50782,0 -32.84572,0 -47.18264,0 0,16.51758 5.94141,33.27491 14.8545,50.15187 z" /><path
                 id="path354"
                 style="fill:#f08b7a;fill-opacity:1;fill-rule:nonzero;stroke:none"
                 d="m 463.89768,-482.14697 c 11.00196,1.77833 22.75587,3.25977 35.63673,4.29737 -8.07227,-10.66553 -16.14551,-21.33106 -23.7129,-31.8462 -12.50586,-0.65674 -23.72461,-1.59424 -34.08497,-2.71924 7.07227,10.01123 14.61719,20.13965 22.16114,30.26807 z" /><path
                 id="path356"
                 style="fill:#ef8384;fill-opacity:1;fill-rule:nonzero;stroke:none"
                 d="m 441.73654,-512.41504 c 10.36036,1.125 21.57911,2.0625 34.08497,2.71924 -7.56836,-10.51514 -14.63086,-20.87989 -20.68555,-30.94385 -12.17969,-0.32422 -22.93165,-0.78711 -32.73146,-1.34278 5.65821,9.66114 12.2588,19.55567 19.33204,29.56739 z" /><path
                 id="path358"
                 style="fill:#f18f71;fill-opacity:1;fill-rule:nonzero;stroke:none"
                 d="m 499.53441,-477.8496 c 12.88087,1.03711 26.88771,1.62988 42.39845,1.62988 -8.27344,-10.86963 -16.5459,-21.73877 -24.30176,-32.44483 -15.50977,0 -29.30372,-0.375 -41.80959,-1.03125 7.56739,10.51514 15.64063,21.18067 23.7129,31.8462 z" /><path
                 id="path360"
                 style="fill:#f0867e;fill-opacity:1;fill-rule:nonzero;stroke:none"
                 d="m 475.82151,-509.6958 c 12.50587,0.65625 26.29982,1.03125 41.80959,1.03125 -7.75586,-10.70606 -14.99415,-21.24903 -21.19923,-31.46583 -15.50977,0 -29.11622,-0.18505 -41.29591,-0.50927 6.05469,10.06396 13.11719,20.42871 20.68555,30.94385 z" /><path
                 id="path362"
                 style="fill:#ee7a8e;fill-opacity:1;fill-rule:nonzero;stroke:none"
                 d="m 422.4045,-541.98243 c 9.79981,0.55567 20.55177,1.01856 32.73146,1.34278 -6.05469,-10.06397 -11.09961,-19.82667 -14.63087,-29.13868 -11.94922,-0.0889 -22.3711,-0.21631 -31.7754,-0.36914 3.30078,9.07666 8.01563,18.50391 13.67481,28.16504 z" /><path
                 id="path364"
                 style="fill:#ed7098;fill-opacity:1;fill-rule:nonzero;stroke:none"
                 d="m 408.72969,-570.14747 c 9.4043,0.15283 19.82618,0.28027 31.7754,0.36914 -3.53222,-9.31153 -5.5498,-18.17188 -5.5498,-26.43067 -11.86133,0 -22.15821,0 -31.41212,0 0,8.25879 1.88574,16.98487 5.18652,26.06153 z" /><path
                 id="path366"
                 style="fill:#ee7c8a;fill-opacity:1;fill-rule:nonzero;stroke:none"
                 d="m 455.13596,-540.63965 c 12.17969,0.32422 25.78614,0.50927 41.29591,0.50927 -6.2041,-10.21631 -11.375,-20.10693 -14.99414,-29.50781 -15.50978,0 -28.98439,-0.0508 -40.93264,-0.14014 3.53126,9.31201 8.57618,19.07471 14.63087,29.13868 z" /><path
                 id="path368"
                 style="fill:#ed7296;fill-opacity:1;fill-rule:nonzero;stroke:none"
                 d="m 440.50509,-569.77833 c 11.94825,0.0893 25.42286,0.14014 40.93264,0.14014 -3.61915,-9.40089 -5.68751,-18.31202 -5.68751,-26.57081 -15.50977,0 -28.93458,0 -40.79493,0 0,8.25879 2.01758,17.11914 5.5498,26.43067 z" /><path
                 id="path370"
                 style="fill:#f7ad40;fill-opacity:1;fill-rule:nonzero;stroke:none"
                 d="m 608.11453,-356.23092 c 19.38965,0 38.84767,-8.56104 58.34084,-21.40284 0,-8.25879 -1.74512,-16.83594 -4.79883,-25.65137 -20.02638,12.29004 -39.83986,20.4834 -59.22951,20.4834 3.61914,9.40088 5.6875,18.3125 5.6875,26.57081 z" /><path
                 id="path372"
                 style="fill:#f5a647;fill-opacity:1;fill-rule:nonzero;stroke:none"
                 d="m 602.42703,-382.80173 c 19.38965,0 39.20313,-8.19336 59.22951,-20.4834 -3.05371,-8.81592 -7.41602,-17.87012 -12.65137,-27.0835 -21.43165,10.83545 -42.18263,18.05908 -61.57229,18.05908 6.2041,10.2168 11.375,20.10694 14.99415,29.50782 z" /><path
                 id="path374"
                 style="fill:#f49f52;fill-opacity:1;fill-rule:nonzero;stroke:none"
                 d="m 587.43288,-412.30955 c 19.38966,0 40.14064,-7.22363 61.57229,-18.05908 -5.23536,-9.21338 -11.34278,-18.58546 -17.88673,-28.03761 -23.41895,8.77881 -45.49513,14.63087 -64.88479,14.63087 7.75587,10.70654 14.99415,21.24902 21.19923,31.46582 z" /><path
                 id="path376"
                 style="fill:#f2985f;fill-opacity:1;fill-rule:nonzero;stroke:none"
                 d="m 566.23365,-443.77537 c 19.38966,0 41.46584,-5.85206 64.88479,-14.63087 -6.54395,-9.45215 -13.52442,-18.98389 -20.50391,-28.51514 -25.69728,6.4209 -49.29201,10.70166 -68.68167,10.70166 8.27247,10.86915 16.54493,21.73829 24.30079,32.44435 z" /><path
                 id="path378"
                 style="fill:#f7ad40;fill-opacity:1;fill-rule:nonzero;stroke:none"
                 d="m 666.45537,-377.63376 c 19.49317,-12.84229 39.01954,-29.96485 58.54689,-47.08741 0,-8.25879 -1.03418,-16.1001 -2.84375,-23.62794 -20.23829,16.38672 -40.4756,32.77394 -60.50197,45.06398 3.05371,8.81543 4.79883,17.39258 4.79883,25.65137 z" /><path
                 id="path380"
                 style="fill:#f6a747;fill-opacity:1;fill-rule:nonzero;stroke:none"
                 d="m 661.65654,-403.28513 c 20.02637,-12.29004 40.26368,-28.67726 60.50197,-45.06398 -1.80957,-7.52832 -4.39453,-14.74316 -7.49707,-21.74903 -22.11231,14.44727 -44.22463,28.89405 -65.65627,39.72951 5.23535,9.21338 9.59766,18.26758 12.65137,27.0835 z" /><path
                 id="path382"
                 style="fill:#f4a052;fill-opacity:1;fill-rule:nonzero;stroke:none"
                 d="m 649.00517,-430.36863 c 21.43164,-10.83546 43.54396,-25.28224 65.65627,-39.72951 -3.10254,-7.00634 -6.72168,-13.80371 -10.59961,-20.49658 -24.76173,11.70459 -49.52443,23.40967 -72.94339,32.18848 6.54395,9.45215 12.65137,18.82423 17.88673,28.03761 z" /><path
                 id="path384"
                 style="fill:#f39960;fill-opacity:1;fill-rule:nonzero;stroke:none"
                 d="m 631.11844,-458.40624 c 23.41896,-8.77881 48.18166,-20.48389 72.94339,-32.18848 -3.87793,-6.69336 -8.01465,-13.28174 -12.1504,-19.87061 -27.79981,8.56152 -55.59963,17.12305 -81.2969,23.54395 6.97949,9.53125 13.95996,19.06299 20.50391,28.51514 z" /><path
                 id="path386"
                 style="fill:#f1906e;fill-opacity:1;fill-rule:nonzero;stroke:none"
                 d="m 541.93286,-476.21972 c 19.38966,0 42.98439,-4.28076 68.68167,-10.70166 -6.98047,-9.53174 -13.96094,-19.06348 -20.50392,-28.51514 -27.97559,4.06299 -53.08986,6.77197 -72.47951,6.77197 7.75586,10.70606 16.02832,21.5752 24.30176,32.44483 z" /><path
                 id="path388"
                 style="fill:#ef877c;fill-opacity:1;fill-rule:nonzero;stroke:none"
                 d="m 517.6311,-508.66455 c 19.38965,0 44.50392,-2.70898 72.47951,-6.77197 -6.54394,-9.45215 -12.65234,-18.82471 -17.88672,-28.03809 -29.9629,2.00683 -56.40139,3.34423 -75.79202,3.34423 6.20508,10.2168 13.44337,20.75977 21.19923,31.46583 z" /><path
                 id="path390"
                 style="fill:#ef7e8a;fill-opacity:1;fill-rule:nonzero;stroke:none"
                 d="m 496.43187,-540.13038 c 9.69532,0 21.15235,-0.33447 33.93068,-0.91943 -5.9375,-9.94092 -10.88575,-19.60108 -14.34962,-28.84131 -13.18848,0.16113 -24.87989,0.25293 -34.5752,0.25293 3.61914,9.40088 8.79004,19.2915 14.99414,29.50781 z" /><path
                 id="path392"
                 style="fill:#ed7396;fill-opacity:1;fill-rule:nonzero;stroke:none"
                 d="m 481.43773,-569.63819 c 9.69531,0 21.38672,-0.0918 34.5752,-0.25293 -3.46386,-9.23975 -5.44336,-18.05909 -5.44336,-26.31788 -13.34375,0 -25.12403,0 -34.81935,0 0,8.25879 2.06836,17.16992 5.68751,26.57081 z" /><path
                 id="path394"
                 style="fill:#ef7e89;fill-opacity:1;fill-rule:nonzero;stroke:none"
                 d="m 530.36255,-541.04981 c -11.87598,-19.88135 -19.79298,-38.64161 -19.79298,-55.15919 13.34473,0 28.25294,0 44.20314,0 0,16.51758 6.98047,34.30762 17.45118,52.73439 -14.98145,1.00341 -29.08204,1.83935 -41.86134,2.4248 z" /><path
                 id="path396"
                 style="fill:#f1926e;fill-opacity:1;fill-rule:nonzero;stroke:none"
                 d="m 610.61453,-486.92138 c -13.96094,-19.06348 -27.92091,-38.12647 -38.39064,-56.55323 14.98145,-1.00293 30.84376,-2.17383 47.1465,-3.42774 8.4834,16.37012 19.79395,32.69092 31.10353,49.01173 -13.63673,4.01318 -27.01075,7.75879 -39.85939,10.96924 z" /><path
                 id="path398"
                 style="fill:#f1946e;fill-opacity:1;fill-rule:nonzero;stroke:none"
                 d="m 650.47392,-497.89062 c -11.30958,-16.32081 -22.62013,-32.64161 -31.10353,-49.01173 16.30372,-1.25391 33.04689,-2.5918 49.79103,-3.92969 6.20411,14.0127 14.47657,27.18946 22.75001,40.36671 -13.90039,4.28076 -27.79981,8.56152 -41.43751,12.57471 z" /><path
                 id="path400"
                 style="fill:#ef8189;fill-opacity:1;fill-rule:nonzero;stroke:none"
                 d="m 572.22389,-543.47461 c -10.47071,-18.42677 -17.45118,-36.21681 -17.45118,-52.73439 15.95118,0 32.94533,0 50.45998,0 0,16.51758 5.65528,32.93653 14.1377,49.30665 -16.30274,1.25391 -32.16505,2.42481 -47.1465,3.42774 z" /><path
                 id="path402"
                 style="fill:#ef8487;fill-opacity:1;fill-rule:nonzero;stroke:none"
                 d="m 619.37039,-546.90235 c -8.48242,-16.37012 -14.1377,-32.78907 -14.1377,-49.30665 17.51466,0 35.55079,0 53.58791,0 0,16.51758 4.13574,31.36475 10.34082,45.37696 -16.74414,1.33789 -33.48731,2.67578 -49.79103,3.92969 z" /><path
                 id="path404"
                 style="fill:#f7ad40;fill-opacity:1;fill-rule:nonzero;stroke:none"
                 d="m 725.00226,-424.72117 c 19.52735,-17.12257 39.05373,-34.24513 58.5469,-47.08741 0,-8.25831 -0.32324,-15.36378 -0.88867,-21.6045 -20.02638,12.29004 -40.26369,28.67725 -60.50198,45.06397 1.80957,7.52784 2.84375,15.36915 2.84375,23.62794 z" /><path
                 id="path406"
                 style="fill:#f6a946;fill-opacity:1;fill-rule:nonzero;stroke:none"
                 d="m 722.15851,-448.34911 c 20.23829,-16.38672 40.4756,-32.77393 60.50198,-45.06397 -0.56543,-6.24073 -1.37305,-11.61621 -2.34278,-16.41504 -21.43165,10.83545 -43.54396,25.28272 -65.65627,39.72998 3.10254,7.00587 5.6875,14.22071 7.49707,21.74903 z" /><path
                 id="path408"
                 style="fill:#f5a451;fill-opacity:1;fill-rule:nonzero;stroke:none"
                 d="m 714.66144,-470.09814 c 22.11231,-14.44726 44.22462,-28.89453 65.65627,-39.72998 -1.93945,-9.59766 -4.52441,-16.88917 -7.10937,-24.18067 -25.69728,6.4209 -53.49709,14.98242 -81.29691,23.54346 8.27247,13.17725 16.54493,26.3545 22.75001,40.36719 z" /><path
                 id="path410"
                 style="fill:#f7ad40;fill-opacity:1;fill-rule:nonzero;stroke:none"
                 d="m 783.54916,-471.80858 c 19.49317,-12.8418 38.95119,-21.40284 58.34084,-21.40284 0,-8.25879 0,-15.02979 0,-20.68506 -19.38965,0 -39.20314,8.19336 -59.22951,20.4834 0.56543,6.24072 0.88867,13.34619 0.88867,21.6045 z" /><path
                 id="path412"
                 style="fill:#f7ab43;fill-opacity:1;fill-rule:nonzero;stroke:none"
                 d="m 782.66049,-493.41308 c 20.02637,-12.29004 39.83986,-20.4834 59.22951,-20.4834 0,-5.65528 0,-10.19483 0,-13.99073 -19.38965,0 -40.14064,7.22364 -61.57229,18.05909 0.96973,4.79883 1.77735,10.17431 2.34278,16.41504 z" /><path
                 id="path414"
                 style="fill:#f6a84b;fill-opacity:1;fill-rule:nonzero;stroke:none"
                 d="m 780.31771,-509.82812 c -1.93945,-9.59766 -4.52441,-16.88917 -7.10937,-24.18067 12.84863,-3.21045 25.17188,-5.88575 36.70606,-7.75879 0.71094,5.35205 1.42188,10.70361 1.95508,18.84668 -10.29004,3.16016 -20.83594,7.6753 -31.55177,13.09278 z" /><path
                 id="path416"
                 style="fill:#f6ab46;fill-opacity:1;fill-rule:nonzero;stroke:none"
                 d="m 811.86948,-522.9209 c -0.5332,-8.14307 -1.24414,-13.49463 -1.95508,-18.84668 11.53419,-1.87256 22.28028,-2.94287 31.9756,-2.94287 0,4.61621 0,9.23193 0,16.82324 -9.69532,0 -19.73048,1.80615 -30.02052,4.96631 z" /><path
                 id="path418"
                 style="fill:#f2976b;fill-opacity:1;fill-rule:nonzero;stroke:none"
                 d="m 691.91143,-510.46533 c -8.27344,-13.17725 -16.5459,-26.35401 -22.75001,-40.36671 16.74317,-1.3374 33.48732,-2.67529 49.79006,-3.9292 3.92676,11.6543 9.16114,21.68799 14.39649,31.72169 -13.63672,4.01318 -27.53712,8.29395 -41.43654,12.57422 z" /><path
                 id="path420"
                 style="fill:#f39b67;fill-opacity:1;fill-rule:nonzero;stroke:none"
                 d="m 733.34797,-523.03955 c -5.23535,-10.0337 -10.46973,-20.06739 -14.39649,-31.72169 16.30372,-1.25439 32.16603,-2.4248 47.14748,-3.42822 1.93847,9.59815 4.52441,16.88965 7.10938,24.18067 -12.84864,3.21045 -26.22267,6.95605 -39.86037,10.96924 z" /><path
                 id="path422"
                 style="fill:#f08984;fill-opacity:1;fill-rule:nonzero;stroke:none"
                 d="m 669.16142,-550.83204 c -6.20508,-14.01221 -10.34082,-28.85938 -10.34082,-45.37696 18.03614,0 36.07228,0 53.58693,0 0,16.51758 2.61817,29.79297 6.54395,41.44776 -16.30274,1.25391 -33.04689,2.5918 -49.79006,3.9292 z" /><path
                 id="path424"
                 style="fill:#f1907e;fill-opacity:1;fill-rule:nonzero;stroke:none"
                 d="m 718.95148,-554.76124 c -3.92578,-11.65479 -6.54395,-24.93018 -6.54395,-41.44776 17.51563,0 34.5088,0 50.45998,0 0,16.51758 1.29199,28.42188 3.23145,38.01954 -14.98145,1.00342 -30.84376,2.17383 -47.14748,3.42822 z" /><path
                 id="path426"
                 style="fill:#f4a060;fill-opacity:1;fill-rule:nonzero;stroke:none"
                 d="m 773.20834,-534.00879 c -2.58497,-7.29102 -5.17091,-14.58252 -7.10938,-24.18067 14.98145,-1.00293 29.08204,-1.83936 41.86036,-2.42432 0.53321,8.14307 1.24415,13.49463 1.95508,18.8462 -11.53418,1.87304 -23.85743,4.54834 -36.70606,7.75879 z" /><path
                 id="path428"
                 style="fill:#f5a653;fill-opacity:1;fill-rule:nonzero;stroke:none"
                 d="m 809.9144,-541.76758 c -0.71093,-5.35157 -1.42187,-10.70313 -1.95508,-18.8462 12.77833,-0.58545 24.23536,-0.91992 33.93068,-0.91992 0,7.59131 0,12.20752 0,16.82325 -9.69532,0 -20.44141,1.07031 -31.9756,2.94287 z" /><path
                 id="path430"
                 style="fill:#f29873;fill-opacity:1;fill-rule:nonzero;stroke:none"
                 d="m 766.09896,-558.18946 c -1.93946,-9.59766 -3.23145,-21.50196 -3.23145,-38.01954 15.9502,0 30.85939,0 44.20314,0 0,16.51758 0.35547,27.45215 0.88867,35.59522 -12.77832,0.58496 -26.87891,1.42139 -41.86036,2.42432 z" /><path
                 id="path432"
                 style="fill:#f4a260;fill-opacity:1;fill-rule:nonzero;stroke:none"
                 d="m 807.95932,-560.61378 c -0.5332,-8.14307 -0.88867,-19.07764 -0.88867,-35.59522 13.34473,0 25.12403,0 34.81935,0 0,16.51758 0,27.08399 0,34.6753 -9.69532,0 -21.15235,0.33447 -33.93068,0.91992 z" /></g></g></g></g></g></g></svg>